<svg xmlns="http://www.w3.org/2000/svg" fill="none" viewBox="0 0 192 192"><path fill="#FFB4C7" d="M192 0H0v192h192V0Z"/><g filter="url(#a)"><rect width="16.216" height="16.216" x="46" y="46" fill="#3F131E" rx=".676"/><rect width="16.216" height="16.216" x="66.946" y="46" fill="#80223A" rx=".676"/><rect width="16.216" height="16.216" x="87.892" y="46" fill="#BE3256" rx=".676"/><rect width="16.216" height="16.216" x="108.838" y="46" fill="#FF4473" rx=".676"/><rect width="16.216" height="16.216" x="129.784" y="46" fill="#FF698F" rx=".676"/><rect width="16.216" height="16.216" x="46" y="66.946" fill="#80223A" rx=".676"/><rect width="16.216" height="16.216" x="66.946" y="66.946" fill="#BE3256" rx=".676"/><rect width="16.216" height="16.216" x="87.892" y="66.946" fill="#FF4473" rx=".676"/><rect width="16.216" height="16.216" x="108.838" y="66.946" fill="#FF698F" rx=".676"/><rect width="16.216" height="16.216" x="129.784" y="66.946" fill="#FF8FAB" rx=".676"/><rect width="16.216" height="16.216" x="46" y="87.892" fill="#BE3256" rx=".676"/><rect width="16.216" height="16.216" x="66.946" y="87.892" fill="#FF4473" rx=".676"/><rect width="16.216" height="16.216" x="87.892" y="87.892" fill="#FF698F" rx=".676"/><rect width="16.216" height="16.216" x="108.838" y="87.892" fill="#FF8FAB" rx=".676"/><rect width="16.216" height="16.216" x="46" y="108.838" fill="#FF4473" rx=".676"/><rect width="16.216" height="16.216" x="66.946" y="108.838" fill="#FF698F" rx=".676"/><rect width="16.216" height="16.216" x="87.892" y="108.838" fill="#FF8FAB" rx=".676"/><rect width="16.216" height="16.216" x="46" y="129.784" fill="#FF698F" rx=".676"/><rect width="16.216" height="16.216" x="66.946" y="129.784" fill="#FF8FAB" rx=".676"/></g><defs><filter id="a" width="100" height="101.351" x="46" y="46" color-interpolation-filters="sRGB" filterUnits="userSpaceOnUse"><feFlood flood-opacity="0" result="BackgroundImageFix"/><feColorMatrix in="SourceAlpha" result="hardAlpha" values="0 0 0 0 0 0 0 0 0 0 0 0 0 0 0 0 0 0 127 0"/><feOffset dy="1.351"/><feColorMatrix values="0 0 0 0 1 0 0 0 0 0.560784 0 0 0 0 0.670588 0 0 0 1 0"/><feBlend in2="BackgroundImageFix" result="effect1_dropShadow_1830_84"/><feBlend in="SourceGraphic" in2="effect1_dropShadow_1830_84" result="shape"/><feColorMatrix in="SourceAlpha" result="hardAlpha" values="0 0 0 0 0 0 0 0 0 0 0 0 0 0 0 0 0 0 127 0"/><feOffset dy="1.351"/><feComposite in2="hardAlpha" k2="-1" k3="1" operator="arithmetic"/><feColorMatrix values="0 0 0 0 1 0 0 0 0 1 0 0 0 0 1 0 0 0 0.2 0"/><feBlend in2="shape" result="effect2_innerShadow_1830_84"/><feColorMatrix in="SourceAlpha" result="hardAlpha" values="0 0 0 0 0 0 0 0 0 0 0 0 0 0 0 0 0 0 127 0"/><feOffset dy="-1.351"/><feComposite in2="hardAlpha" k2="-1" k3="1" operator="arithmetic"/><feColorMatrix values="0 0 0 0 0.247059 0 0 0 0 0.0745098 0 0 0 0 0.117647 0 0 0 0.5 0"/><feBlend in2="effect2_innerShadow_1830_84" result="effect3_innerShadow_1830_84"/></filter></defs></svg>