<svg xmlns="http://www.w3.org/2000/svg" fill="none" viewBox="0 0 192 192"><path fill="#fff" fill-rule="evenodd" d="M32 0h128a32 32 0 0 1 32 32v128a32 32 0 0 1-32 32H32a32 32 0 0 1-32-32V32A32 32 0 0 1 32 0ZM22 23c0-.6.4-1 1-1h22c.6 0 1 .4 1 1v22c0 .6-.4 1-1 1H23a1 1 0 0 1-1-1V23Zm31 0c0-.6.4-1 1-1h22c.6 0 1 .4 1 1v22c0 .6-.4 1-1 1H54a1 1 0 0 1-1-1V23Zm32-1a1 1 0 0 0-1 1v22c0 .6.4 1 1 1h22c.6 0 1-.4 1-1V23c0-.6-.4-1-1-1H85Zm30 1c0-.6.4-1 1-1h22c.6 0 1 .4 1 1v22c0 .6-.4 1-1 1h-22a1 1 0 0 1-1-1V23Zm32-1a1 1 0 0 0-1 1v22c0 .6.4 1 1 1h22c.6 0 1-.4 1-1V23c0-.6-.4-1-1-1h-22ZM22 54c0-.6.4-1 1-1h22c.6 0 1 .4 1 1v22c0 .6-.4 1-1 1H23a1 1 0 0 1-1-1V54Zm32-1a1 1 0 0 0-1 1v22c0 .6.4 1 1 1h22c.6 0 1-.4 1-1V54c0-.6-.4-1-1-1H54Zm30 1c0-.6.4-1 1-1h22c.6 0 1 .4 1 1v22c0 .6-.4 1-1 1H85a1 1 0 0 1-1-1V54Zm32-1a1 1 0 0 0-1 1v22c0 .6.4 1 1 1h22c.6 0 1-.4 1-1V54c0-.6-.4-1-1-1h-22Zm30 1c0-.6.4-1 1-1h22c.6 0 1 .4 1 1v22c0 .6-.4 1-1 1h-22a1 1 0 0 1-1-1V54ZM23 84a1 1 0 0 0-1 1v22c0 .6.4 1 1 1h22c.6 0 1-.4 1-1V85c0-.6-.4-1-1-1H23Zm30 1c0-.6.4-1 1-1h22c.6 0 1 .4 1 1v22c0 .6-.4 1-1 1H54a1 1 0 0 1-1-1V85Zm32-1a1 1 0 0 0-1 1v22c0 .6.4 1 1 1h22c.6 0 1-.4 1-1V85c0-.6-.4-1-1-1H85Zm30 1c0-.6.4-1 1-1h22c.6 0 1 .4 1 1v22c0 .6-.4 1-1 1h-22a1 1 0 0 1-1-1V85Zm-92 30a1 1 0 0 0-1 1v22c0 .6.4 1 1 1h22c.6 0 1-.4 1-1v-22c0-.6-.4-1-1-1H23Zm30 1c0-.6.4-1 1-1h22c.6 0 1 .4 1 1v22c0 .6-.4 1-1 1H54a1 1 0 0 1-1-1v-22Zm32-1a1 1 0 0 0-1 1v22c0 .6.4 1 1 1h22c.6 0 1-.4 1-1v-22c0-.6-.4-1-1-1H85Zm-63 32c0-.6.4-1 1-1h22c.6 0 1 .4 1 1v22c0 .6-.4 1-1 1H23a1 1 0 0 1-1-1v-22Zm32-1a1 1 0 0 0-1 1v22c0 .6.4 1 1 1h22c.6 0 1-.4 1-1v-22c0-.6-.4-1-1-1H54Z" clip-rule="evenodd"/></svg>