<svg xmlns="http://www.w3.org/2000/svg" fill="none" viewBox="0 0 192 192"><path fill="#FFB4C7" d="M160 0H32C14 0 0 14 0 32v128c0 18 14 32 32 32h128c18 0 32-14 32-32V32c0-18-14-32-32-32Z"/><g filter="url(#a)"><rect width="24" height="24" x="22" y="22" fill="#3F131E" rx="1"/><rect width="24" height="24" x="53" y="22" fill="#80223A" rx="1"/><rect width="24" height="24" x="84" y="22" fill="#BE3256" rx="1"/><rect width="24" height="24" x="115" y="22" fill="#FF4473" rx="1"/><rect width="24" height="24" x="146" y="22" fill="#FF698F" rx="1"/><rect width="24" height="24" x="22" y="53" fill="#80223A" rx="1"/><rect width="24" height="24" x="53" y="53" fill="#BE3256" rx="1"/><rect width="24" height="24" x="84" y="53" fill="#FF4473" rx="1"/><rect width="24" height="24" x="115" y="53" fill="#FF698F" rx="1"/><rect width="24" height="24" x="146" y="53" fill="#FF8FAB" rx="1"/><rect width="24" height="24" x="22" y="84" fill="#BE3256" rx="1"/><rect width="24" height="24" x="53" y="84" fill="#FF4473" rx="1"/><rect width="24" height="24" x="84" y="84" fill="#FF698F" rx="1"/><rect width="24" height="24" x="115" y="84" fill="#FF8FAB" rx="1"/><rect width="24" height="24" x="22" y="115" fill="#FF4473" rx="1"/><rect width="24" height="24" x="53" y="115" fill="#FF698F" rx="1"/><rect width="24" height="24" x="84" y="115" fill="#FF8FAB" rx="1"/><rect width="24" height="24" x="22" y="146" fill="#FF698F" rx="1"/><rect width="24" height="24" x="53" y="146" fill="#FF8FAB" rx="1"/></g><defs><filter id="a" width="148" height="150" x="22" y="22" color-interpolation-filters="sRGB" filterUnits="userSpaceOnUse"><feFlood flood-opacity="0" result="BackgroundImageFix"/><feColorMatrix in="SourceAlpha" result="hardAlpha" values="0 0 0 0 0 0 0 0 0 0 0 0 0 0 0 0 0 0 127 0"/><feOffset dy="2"/><feColorMatrix values="0 0 0 0 1 0 0 0 0 0.560784 0 0 0 0 0.670588 0 0 0 1 0"/><feBlend in2="BackgroundImageFix" result="effect1_dropShadow_1830_57"/><feBlend in="SourceGraphic" in2="effect1_dropShadow_1830_57" result="shape"/><feColorMatrix in="SourceAlpha" result="hardAlpha" values="0 0 0 0 0 0 0 0 0 0 0 0 0 0 0 0 0 0 127 0"/><feOffset dy="2"/><feComposite in2="hardAlpha" k2="-1" k3="1" operator="arithmetic"/><feColorMatrix values="0 0 0 0 1 0 0 0 0 1 0 0 0 0 1 0 0 0 0.2 0"/><feBlend in2="shape" result="effect2_innerShadow_1830_57"/><feColorMatrix in="SourceAlpha" result="hardAlpha" values="0 0 0 0 0 0 0 0 0 0 0 0 0 0 0 0 0 0 127 0"/><feOffset dy="-2"/><feComposite in2="hardAlpha" k2="-1" k3="1" operator="arithmetic"/><feColorMatrix values="0 0 0 0 0.247059 0 0 0 0 0.0745098 0 0 0 0 0.117647 0 0 0 0.5 0"/><feBlend in2="effect2_innerShadow_1830_57" result="effect3_innerShadow_1830_57"/></filter></defs></svg>