<svg
	width="96"
	height="96"
	viewBox="0 0 192 192"
	fill="none"
	xmlns="http://www.w3.org/2000/svg"
>
	<path
		d="M180 0H12C5.37258 0 0 5.37258 0 12V180C0 186.627 5.37258 192 12 192H180C186.627 192 192 186.627 192 180V12C192 5.37258 186.627 0 180 0Z"
		fill="#FFB4C7"
	/>
	<g filter="url(#filter0_dii)">
		<path
			d="M45.0899 46H22.9101C22.4095 46 22 45.0786 22 43.9524V24.0476C22 22.9214 22.4095 22 22.9101 22H45.0899C45.5905 22 46 22.9214 46 24.0476V43.9524C46 45.0786 45.5905 46 45.0899 46Z"
			fill="#3F131E"
		/>
		<path
			d="M76.0899 46H53.9101C53.4095 46 53 45.0786 53 43.9524V24.0476C53 22.9214 53.4095 22 53.9101 22H76.0899C76.5905 22 77 22.9214 77 24.0476V43.9524C77 45.0786 76.5905 46 76.0899 46Z"
			fill="#80223A"
		/>
		<path
			d="M107.09 46H84.9101C84.4095 46 84 45.0786 84 43.9524V24.0476C84 22.9214 84.4095 22 84.9101 22H107.09C107.59 22 108 22.9214 108 24.0476V43.9524C108 45.0786 107.59 46 107.09 46Z"
			fill="#BE3256"
		/>
		<path
			d="M138.09 46H115.91C115.41 46 115 45.0786 115 43.9524V24.0476C115 22.9214 115.41 22 115.91 22H138.09C138.59 22 139 22.9214 139 24.0476V43.9524C139 45.0786 138.59 46 138.09 46Z"
			fill="#FF4473"
		/>
		<path
			d="M169.09 46H146.91C146.41 46 146 45.0786 146 43.9524V24.0476C146 22.9214 146.41 22 146.91 22H169.09C169.59 22 170 22.9214 170 24.0476V43.9524C170 45.0786 169.59 46 169.09 46Z"
			fill="#FF698F"
		/>
		<path
			d="M45.0899 77H22.9101C22.4095 77 22 76.0786 22 74.9524V55.0476C22 53.9214 22.4095 53 22.9101 53H45.0899C45.5905 53 46 53.9214 46 55.0476V74.9524C46 76.0786 45.5905 77 45.0899 77Z"
			fill="#80223A"
		/>
		<path
			d="M76.0899 77H53.9101C53.4095 77 53 76.0786 53 74.9524V55.0476C53 53.9214 53.4095 53 53.9101 53H76.0899C76.5905 53 77 53.9214 77 55.0476V74.9524C77 76.0786 76.5905 77 76.0899 77Z"
			fill="#BE3256"
		/>
		<path
			d="M107.09 77H84.9101C84.4095 77 84 76.0786 84 74.9524V55.0476C84 53.9214 84.4095 53 84.9101 53H107.09C107.59 53 108 53.9214 108 55.0476V74.9524C108 76.0786 107.59 77 107.09 77Z"
			fill="#FF4473"
		/>
		<path
			d="M138.09 77H115.91C115.41 77 115 76.0786 115 74.9524V55.0476C115 53.9214 115.41 53 115.91 53H138.09C138.59 53 139 53.9214 139 55.0476V74.9524C139 76.0786 138.59 77 138.09 77Z"
			fill="#FF698F"
		/>
		<path
			d="M169.09 77H146.91C146.41 77 146 76.0786 146 74.9524V55.0476C146 53.9214 146.41 53 146.91 53H169.09C169.59 53 170 53.9214 170 55.0476V74.9524C170 76.0786 169.59 77 169.09 77Z"
			fill="#FF8FAB"
		/>
		<path
			d="M45.0899 108H22.9101C22.4095 108 22 107.079 22 105.952V86.0476C22 84.9214 22.4095 84 22.9101 84H45.0899C45.5905 84 46 84.9214 46 86.0476V105.952C46 107.079 45.5905 108 45.0899 108Z"
			fill="#BE3256"
		/>
		<path
			d="M76.0899 108H53.9101C53.4095 108 53 107.079 53 105.952V86.0476C53 84.9214 53.4095 84 53.9101 84H76.0899C76.5905 84 77 84.9214 77 86.0476V105.952C77 107.079 76.5905 108 76.0899 108Z"
			fill="#FF4473"
		/>
		<path
			d="M107.09 108H84.9101C84.4095 108 84 107.079 84 105.952V86.0476C84 84.9214 84.4095 84 84.9101 84H107.09C107.59 84 108 84.9214 108 86.0476V105.952C108 107.079 107.59 108 107.09 108Z"
			fill="#FF698F"
		/>
		<path
			d="M138.09 108H115.91C115.41 108 115 107.079 115 105.952V86.0476C115 84.9214 115.41 84 115.91 84H138.09C138.59 84 139 84.9214 139 86.0476V105.952C139 107.079 138.59 108 138.09 108Z"
			fill="#FF8FAB"
		/>
		<path
			d="M45.0899 139H22.9101C22.4095 139 22 138.079 22 136.952V117.048C22 115.921 22.4095 115 22.9101 115H45.0899C45.5905 115 46 115.921 46 117.048V136.952C46 138.079 45.5905 139 45.0899 139Z"
			fill="#FF4473"
		/>
		<path
			d="M76.0899 139H53.9101C53.4095 139 53 138.079 53 136.952V117.048C53 115.921 53.4095 115 53.9101 115H76.0899C76.5905 115 77 115.921 77 117.048V136.952C77 138.079 76.5905 139 76.0899 139Z"
			fill="#FF698F"
		/>
		<path
			d="M107.09 139H84.9101C84.4095 139 84 138.079 84 136.952V117.048C84 115.921 84.4095 115 84.9101 115H107.09C107.59 115 108 115.921 108 117.048V136.952C108 138.079 107.59 139 107.09 139Z"
			fill="#FF8FAB"
		/>
		<path
			d="M45.0899 170H22.9101C22.4095 170 22 169.079 22 167.952V148.048C22 146.921 22.4095 146 22.9101 146H45.0899C45.5905 146 46 146.921 46 148.048V167.952C46 169.079 45.5905 170 45.0899 170Z"
			fill="#FF698F"
		/>
		<path
			d="M76.0899 170H53.9101C53.4095 170 53 169.079 53 167.952V148.048C53 146.921 53.4095 146 53.9101 146H76.0899C76.5905 146 77 146.921 77 148.048V167.952C77 169.079 76.5905 170 76.0899 170Z"
			fill="#FF8FAB"
		/>
	</g>
	<defs>
		<filter
			id="filter0_dii"
			x="22"
			y="22"
			width="148"
			height="150"
			filterUnits="userSpaceOnUse"
			color-interpolation-filters="sRGB"
		>
			<feFlood
				flood-opacity="0"
				result="BackgroundImageFix"
			/>
			<feColorMatrix
				in="SourceAlpha"
				type="matrix"
				values="0 0 0 0 0 0 0 0 0 0 0 0 0 0 0 0 0 0 127 0"
			/>
			<feOffset dy="2" />
			<feColorMatrix
				type="matrix"
				values="0 0 0 0 1 0 0 0 0 0.560784 0 0 0 0 0.670588 0 0 0 1 0"
			/>
			<feBlend
				mode="normal"
				in2="BackgroundImageFix"
				result="effect1_dropShadow"
			/>
			<feBlend
				mode="normal"
				in="SourceGraphic"
				in2="effect1_dropShadow"
				result="shape"
			/>
			<feColorMatrix
				in="SourceAlpha"
				type="matrix"
				values="0 0 0 0 0 0 0 0 0 0 0 0 0 0 0 0 0 0 127 0"
				result="hardAlpha"
			/>
			<feOffset dy="2" />
			<feComposite
				in2="hardAlpha"
				operator="arithmetic"
				k2="-1"
				k3="1"
			/>
			<feColorMatrix
				type="matrix"
				values="0 0 0 0 1 0 0 0 0 1 0 0 0 0 1 0 0 0 0.2 0"
			/>
			<feBlend
				mode="normal"
				in2="shape"
				result="effect2_innerShadow"
			/>
			<feColorMatrix
				in="SourceAlpha"
				type="matrix"
				values="0 0 0 0 0 0 0 0 0 0 0 0 0 0 0 0 0 0 127 0"
				result="hardAlpha"
			/>
			<feOffset dy="-2" />
			<feComposite
				in2="hardAlpha"
				operator="arithmetic"
				k2="-1"
				k3="1"
			/>
			<feColorMatrix
				type="matrix"
				values="0 0 0 0 0.247059 0 0 0 0 0.0745098 0 0 0 0 0.117647 0 0 0 0.5 0"
			/>
			<feBlend
				mode="normal"
				in2="effect2_innerShadow"
				result="effect3_innerShadow"
			/>
		</filter>
	</defs>
</svg>
